PathFileType	4	(X/Y/Z)	C:\Users\Willi\SynologyDrive\Deimel_MSc_Deadlift\Athlete_03\Athlete_3_22_07_06\dl_90\marker_experimental.trc
DataRate	CameraRate	NumFrames	NumMarkers	Units	OrigDataRate	OrigDataStartFrame	OrigNumFrames
200.000000	200.000000	4	59	mm	200.000000	673	5390
Frame#	Time	BR			GLAB			RFHD			LFHD			C7			T6			SPINMOL			SPINM2			SPINM3			T12			BELTOL			BELT2			BELT3			SACROL			SACR2			SACR3			LTHOL			LTH2			LTH3			LSHAOL			LSHA2			LSHA3			LHEE			LTOE			LM5			RTHOL			RTH2			RTH3			RSHAOL			RSHA2			RSHA3			RHEE			RTOE			RM5			STRN			XIPH			LACR			LUAOL			LUA2			LUA3			LLAOL			LLA2			LLA3			LWRU			RACR			RUAOL			RUA2			RUA3			RLAOL			RLA2			RLA3			RWRU			BL			USERMO0			USERMO1			USERMO2			USERMO3			USERMO4			USERMO5			
		X1	Y1	Z1	X2	Y2	Z2	X3	Y3	Z3	X4	Y4	Z4	X5	Y5	Z5	X6	Y6	Z6	X7	Y7	Z7	X8	Y8	Z8	X9	Y9	Z9	X10	Y10	Z10	X11	Y11	Z11	X12	Y12	Z12	X13	Y13	Z13	X14	Y14	Z14	X15	Y15	Z15	X16	Y16	Z16	X17	Y17	Z17	X18	Y18	Z18	X19	Y19	Z19	X20	Y20	Z20	X21	Y21	Z21	X22	Y22	Z22	X23	Y23	Z23	X24	Y24	Z24	X25	Y25	Z25	X26	Y26	Z26	X27	Y27	Z27	X28	Y28	Z28	X29	Y29	Z29	X30	Y30	Z30	X31	Y31	Z31	X32	Y32	Z32	X33	Y33	Z33	X34	Y34	Z34	X35	Y35	Z35	X36	Y36	Z36	X37	Y37	Z37	X38	Y38	Z38	X39	Y39	Z39	X40	Y40	Z40	X41	Y41	Z41	X42	Y42	Z42	X43	Y43	Z43	X44	Y44	Z44	X45	Y45	Z45	X46	Y46	Z46	X47	Y47	Z47	X48	Y48	Z48	X49	Y49	Z49	X50	Y50	Z50	X51	Y51	Z51	X52	Y52	Z52	X53	Y53	Z53	X54	Y54	Z54	X55	Y55	Z55	X56	Y56	Z56	X57	Y57	Z57	X58	Y58	Z58	X59	Y59	Z59	

674	3.365	239.9291229248047	250.8387908935547	-104.968017578125	597.9476928710938	787.9492797851564	-1242.14697265625	606.3395385742188	829.8178710937501	-1153.598510742188	601.7040405273438	867.7190551757814	-1301.831298828125	465.9896240234375	1001.349060058594	-1206.765991210938	269.8670349121094	1075.148681640625	-1215.677368164062	234.4326019287109	1083.076049804688	-1216.6416015625	173.6529693603516	1080.580200195312	-1164.52978515625	172.3071746826172	1081.118774414062	-1214.404663085938	115.7725601196289	1065.983764648438	-1214.892578125	36.14062881469727	1080.404907226562	-1214.807373046875	-17.28871154785156	1051.271728515625	-1163.00537109375	-21.63449668884277	1057.142211914062	-1212.631958007812	-77.07191467285156	1006.626220703125	-1232.971923828125	-64.63429260253906	1007.462341308594	-1183.4287109375	-123.4167251586914	979.9443359375001	-1194.235229492188	8.81367301940918	734.9042358398439	-1455.94482421875	-10.33386516571045	657.6022949218751	-1446.681640625	34.70336532592773	678.6617431640626	-1456.407836914062	86.04596710205078	345.1815490722657	-1462.93408203125	50.60839462280273	275.7202148437501	-1451.768920898438	98.89278411865234	284.7200012207032	-1459.666015625	41.62978363037109	64.76190185546884	-1367.250610351562	251.1156005859375	77.09046173095712	-1384.656982421875	202.3956756591797	53.16664505004892	-1487.657104492188	15.82419395446777	700.6348876953126	-978.2274780273438	84.90451049804688	662.2014770507814	-966.3966674804688	39.03291702270508	643.0818481445314	-973.40625	72.58490753173828	339.9665527343751	-963.4312133789062	116.7689056396484	274.1862182617188	-957.8973999023438	69.24327087402344	279.3179321289063	-972.704345703125	44.70061111450195	64.4044265747071	-1067.716430664062	250.2935028076172	69.50182342529303	-1020.701721191406	190.3812408447266	67.45953369140631	-930.8331298828125	383.9218139648438	848.6079711914064	-1220.17919921875	230.4730072021484	822.4658813476564	-1214.046630859375	428.117431640625	891.2694091796876	-1407.859985351562	380.4866333007812	779.4890747070314	-1482.302734375	341.1907043457031	734.0514526367189	-1511.80810546875	377.2686767578125	713.6973266601564	-1481.700317382812	324.5257263183594	502.9211425781251	-1504.286743164062	294.95556640625	446.5450744628907	-1520.617919921875	325.1520080566406	442.7767333984376	-1481.490844726562	288.8548889160156	353.0808105468751	-1505.793823242188	417.399658203125	876.2339477539064	-1031.651611328125	369.0270385742188	734.7598266601564	-980.866943359375	360.1015930175781	675.1033935546876	-1006.464294433594	353.5187683105469	674.6540527343751	-956.9100341796875	323.6942443847656	484.1135253906251	-948.2650146484375	318.083740234375	427.8330383300782	-980.4144897460938	307.1329040527344	424.1604309082032	-930.6251831054688	286.1963195800781	350.6534423828126	-926.2416381835938	202.0179595947266	250.1121826171876	-2327.68408203125	0.02342710085213184	0.00859567988663912	-0.02187139913439751	0.008509290404617786	0.0135479997843504	-0.00714483018964529	0.01149810012429953	0.008088910020887852	-0.00793795008212328	0.007569729816168547	2.139309883117676	-2.0831298828125	2.022340059280396	2.767999887466431	-2.026779890060425	2.867249965667725	0	0	
675	3.37	240.3771209716797	250.8399353027344	-104.9689254760742	597.7250366210938	788.2062988281251	-1242.24169921875	606.1219482421875	830.1439819335939	-1153.700561523438	601.5039672851562	867.9063110351564	-1301.983032226562	465.7330017089844	1001.615539550781	-1206.867797851562	269.5555725097656	1075.2998046875	-1215.68408203125	234.1213531494141	1083.214599609375	-1216.627319335938	173.3445587158203	1080.65576171875	-1164.513549804688	171.9959259033203	1081.221923828125	-1214.388671875	115.4668807983398	1066.046020507812	-1214.882934570312	35.78987121582031	1080.444946289062	-1214.8037109375	-17.6102237701416	1051.266235351562	-1163.000732421875	-21.96717834472656	1057.138427734375	-1212.624755859375	-77.37271881103516	1006.590698242188	-1232.9609375	-64.92437744140625	1007.415649414063	-1183.427978515625	-123.6886520385742	979.8607177734376	-1194.237426757812	8.628961563110352	734.8775024414064	-1455.961059570312	-10.48908424377441	657.5681152343751	-1446.695068359375	34.53729629516602	678.6437988281251	-1456.4296875	85.96556854248047	345.1768188476564	-1462.94140625	50.54427719116211	275.7100219726564	-1451.778686523438	98.82781982421875	284.7214355468751	-1459.688842773438	41.62847518920898	64.75640869140634	-1367.26416015625	251.1111297607422	77.10205841064462	-1384.661376953125	202.3876495361328	53.16326141357431	-1487.653076171875	15.69260501861572	700.5967407226564	-978.27392578125	84.79034423828125	662.1898803710939	-966.43603515625	38.92654800415039	643.0529785156251	-973.455078125	72.53853607177734	339.9637756347657	-963.4457397460938	116.7326126098633	274.1859741210938	-957.9099731445312	69.20382690429688	279.3109130859376	-972.7346801757812	44.70670700073242	64.39201354980476	-1067.714599609375	250.2901000976562	69.50741577148443	-1020.710876464844	190.3838348388672	67.46490478515631	-930.8400268554688	383.6508483886719	848.9487304687501	-1220.41064453125	230.2678070068359	822.6273193359376	-1214.239013671875	427.8889465332031	891.7180175781251	-1408.087524414062	380.2876586914062	779.9816284179689	-1482.696899414062	340.9969482421875	734.5574340820314	-1512.221923828125	377.1094970703125	714.1952514648439	-1482.15673828125	324.5434265136719	503.3571777343751	-1504.663330078125	295.0755615234375	446.9037170410157	-1520.923828125	325.2933654785156	443.2398071289064	-1481.80810546875	289.1591491699219	353.4375000000001	-1505.9697265625	417.1896057128906	876.3358154296876	-1031.859375	368.9251403808594	734.8815917968751	-981.0554809570312	360.0419616699219	675.2229003906251	-1006.639404296875	353.4546508789062	674.7216796875001	-957.1354370117188	323.8208618164062	484.2372131347657	-948.3920288085938	318.2359008789062	427.9377136230469	-980.516357421875	307.3269653320312	424.2724914550782	-930.7129516601562	286.4676818847656	350.7434082031251	-926.2936401367188	202.541259765625	250.1184997558595	-2327.658447265625	0.02360690012574196	0.008618029765784742	-0.02203069999814034	0.008488990366458893	0.01427389960736036	-0.007112829945981502	0.01146840024739504	0.00812148954719305	-0.00822656974196434	0.00751330005005002	2.138580083847046	-2.07997989654541	2.02209997177124	2.765820026397705	-2.043720006942749	2.868629932403564	0	0	
676	3.375	240.8264007568359	250.8404693603516	-104.9698333740234	597.5094604492188	788.4701538085939	-1242.33837890625	605.9088134765625	830.4727783203126	-1153.806884765625	601.3111572265625	868.1090698242189	-1302.135986328125	465.4800415039062	1001.883728027344	-1206.972290039062	269.24560546875	1075.447143554688	-1215.6875	233.8112030029297	1083.34814453125	-1216.609130859375	173.0374603271484	1080.72607421875	-1164.4931640625	171.6859893798828	1081.319580078125	-1214.36865234375	115.1626129150391	1066.101440429688	-1214.869262695312	35.44167327880859	1080.476806640625	-1214.7978515625	-17.9296932220459	1051.251098632812	-1162.994995117188	-22.29729461669922	1057.126708984375	-1212.616333007812	-77.66874694824219	1006.546813964844	-1232.952392578125	-65.212158203125	1007.360961914063	-1183.4267578125	-123.9580154418945	979.7690429687501	-1194.240478515625	8.456890106201172	734.8461303710939	-1455.975341796875	-10.62996864318848	657.5291137695314	-1446.706176757812	34.38512420654297	678.6218261718751	-1456.44873046875	85.897216796875	345.1751403808595	-1462.950561523438	50.48982620239258	275.7013549804689	-1451.786376953125	98.77280426025391	284.722381591797	-1459.706420898438	41.62687683105469	64.75101470947274	-1367.276977539062	251.1070556640625	77.11270904541024	-1384.663818359375	202.3800506591797	53.16101837158212	-1487.648193359375	15.56581783294678	700.5552978515626	-978.321044921875	84.68225860595703	662.1769409179689	-966.475341796875	38.82669830322266	643.0213623046876	-973.503173828125	72.49864196777344	339.9603271484376	-963.4611206054688	116.7004852294922	274.1840209960938	-957.9224243164062	69.16836547851562	279.3040771484376	-972.7645874023438	44.71060562133789	64.38182830810554	-1067.71240234375	250.2865295410156	69.51285552978521	-1020.720031738281	190.3864135742188	67.4701766967774	-930.8469848632812	383.3827514648438	849.2879028320314	-1220.637329101562	230.0665893554688	822.7847900390626	-1214.423217773438	427.6465454101562	892.1481933593751	-1408.320068359375	380.0599060058594	780.4615478515626	-1483.086547851562	340.7727355957031	735.0506591796876	-1512.626831054688	376.9252319335938	714.6805419921876	-1482.609619140625	324.5478210449219	503.7774353027345	-1505.023681640625	295.1850891113281	447.245819091797	-1521.2138671875	325.4182434082031	443.6878967285157	-1482.102905273438	289.4509582519531	353.7790832519532	-1506.126342773438	416.9854125976562	876.4353637695314	-1032.0634765625	368.8199157714844	734.9995117187501	-981.2439575195312	359.9841613769531	675.3410034179689	-1006.815551757812	353.3887939453125	674.7893066406251	-957.362060546875	323.9439086914062	484.3604431152344	-948.5126953125	318.390625	428.0417480468751	-980.6118774414062	307.5163269042969	424.3857421875001	-930.7943115234375	286.73486328125	350.8336181640626	-926.3406372070312	203.0633392333984	250.125686645508	-2327.63623046875	0.02376060001552105	0.008634209632873537	-0.02237470075488091	0.008445870131254196	0.01504180021584034	-0.007093519903719424	0.01147659961134195	0.008162699639797211	-0.008542990311980247	0.00743472995236516	2.13794994354248	-2.076780080795288	2.021630048751831	2.763720035552979	-2.058769941329956	2.869980096817017	0	0	
677	3.38	241.2769470214844	250.8403778076172	-104.9707794189453	597.301513671875	788.7406005859376	-1242.437133789062	605.700439453125	830.8046264648439	-1153.916870117188	601.125732421875	868.3259277343751	-1302.2900390625	465.2311401367188	1002.153381347656	-1207.080444335938	268.937744140625	1075.590209960938	-1215.687866210938	233.5024719238281	1083.476196289062	-1216.588134765625	172.7322235107422	1080.790771484375	-1164.469360351562	171.3778076171875	1081.411254882812	-1214.345336914062	114.8602066040039	1066.149658203125	-1214.851928710938	35.09688568115234	1080.500122070312	-1214.790161132812	-18.246337890625	1051.226440429688	-1162.988525390625	-22.6241340637207	1057.10693359375	-1212.607055664062	-77.95915222167969	1006.494445800781	-1232.946533203125	-65.49713897705078	1007.29833984375	-1183.425659179688	-124.2244033813477	979.6696166992189	-1194.244384765625	8.29841423034668	734.8099975585939	-1455.986450195312	-10.75578784942627	657.4851074218751	-1446.714599609375	34.24776458740234	678.5957641601564	-1456.464111328125	85.84127807617188	345.1760253906251	-1462.960205078125	50.44538497924805	275.6940917968751	-1451.79150390625	98.72804260253906	284.7228393554689	-1459.718139648438	41.62503433227539	64.7456817626954	-1367.289184570312	251.1034088134766	77.12229156494149	-1384.664306640625	202.3737030029297	53.16030883789072	-1487.642456054688	15.44340229034424	700.5108642578126	-978.3687133789062	84.57964324951172	662.1629028320314	-966.5145874023438	38.73268127441406	642.9871215820314	-973.5502319335938	72.46458435058594	339.9563598632813	-963.4769897460938	116.6718521118164	274.1804504394532	-957.9346313476562	69.13636779785156	279.2975158691407	-972.7938842773438	44.712158203125	64.37390136718757	-1067.709838867188	250.2828063964844	69.51816558837896	-1020.729187011719	190.3889007568359	67.47534179687506	-930.85400390625	383.1180419921875	849.6253662109376	-1220.85888671875	229.8698120117188	822.9378662109376	-1214.602416992188	427.3905334472656	892.5585327148439	-1408.557250976562	379.8037109375	780.9275512695314	-1483.469848632812	340.5184326171875	735.5297241210939	-1513.021362304688	376.7158203125	715.1517333984376	-1483.056884765625	324.5397644042969	504.1815185546876	-1505.369506835938	295.2839050292969	447.5708007812501	-1521.489013671875	325.5272216796875	444.1199035644532	-1482.376953125	289.7292175292969	354.1051635742189	-1506.265869140625	416.7875061035156	876.5336303710939	-1032.263916015625	368.7125854492188	735.1147460937501	-981.4313354492188	359.9291687011719	675.4584960937501	-1006.991577148438	353.3231201171875	674.8594970703126	-957.5868530273438	324.0637512207031	484.4837341308594	-948.6249389648438	318.5494079589844	428.1458435058594	-980.6986694335938	307.7010803222656	424.5011901855469	-930.867431640625	286.9979248046875	350.9248046875001	-926.3812255859375	203.5842437744141	250.1338043212892	-2327.617919921875	0.02389420010149479	0.00864589959383011	-0.02291000075638294	0.008381909690797329	0.01582900062203407	-0.007084980141371488	0.01153079979121685	0.008205870166420937	-0.008874690160155296	0.007333709858357906	2.137449979782104	-2.073669910430908	2.020920038223267	2.761699914932251	-2.071409940719604	2.871289968490601	0	0	
